<svg width="155" height="36" viewBox="0 0 155 36" fill="none" xmlns="http://www.w3.org/2000/svg">
<path fill-rule="evenodd" clip-rule="evenodd" d="M153.657 30.4993L154.063 30.9467C153.78 31.4298 153.386 31.8391 152.914 32.1414C152.441 32.4316 151.894 32.5798 151.338 32.5684C150.825 32.584 150.314 32.4848 149.844 32.2781C149.373 32.0715 148.955 31.7625 148.618 31.3737C147.894 30.5152 147.518 29.4155 147.566 28.2929C147.553 27.7631 147.646 27.2359 147.84 26.7426C148.034 26.2493 148.324 25.7998 148.695 25.4206C149.027 25.0535 149.433 24.7599 149.885 24.5585C150.338 24.3572 150.828 24.2526 151.323 24.2513C151.883 24.2425 152.433 24.3942 152.909 24.6885C153.385 24.9938 153.776 25.4133 154.048 25.9086L153.585 26.1374C153.374 25.7135 153.062 25.3485 152.675 25.0749C152.278 24.8185 151.811 24.6907 151.338 24.7089C150.931 24.7115 150.532 24.83 150.189 25.0505C149.846 25.271 149.573 25.5845 149.401 25.9544C149 26.6785 148.796 27.4956 148.812 28.3235C148.775 29.1993 148.949 30.0711 149.32 30.8654C149.492 31.2575 149.778 31.5891 150.141 31.8174C150.503 32.0457 150.925 32.1603 151.354 32.1465C151.864 32.1799 152.371 32.0371 152.789 31.7419C153.207 31.4468 153.512 31.0172 153.651 30.5247L153.657 30.4993ZM128.741 24.4547V28.0133H132.869V24.4547H133.992V32.3905H132.864V28.4912H128.736V32.3905H127.612V24.4293L128.741 24.4547ZM109.244 29.6808H112.269L110.866 25.746C110.82 25.5833 110.754 25.4969 110.668 25.4969C110.581 25.4969 110.449 25.5833 110.403 25.746L109.244 29.6808ZM108.411 32.3905H107.821L110.048 25.1257C110.113 24.892 110.232 24.6763 110.393 24.4953C110.466 24.415 110.556 24.3516 110.656 24.3094C110.756 24.2673 110.864 24.2474 110.973 24.2513C111.096 24.2512 111.217 24.2785 111.328 24.3313C111.439 24.3841 111.536 24.461 111.613 24.5564C111.777 24.7477 111.898 24.9711 111.969 25.2122L114.46 32.3905H113.215L112.447 30.1994H109.066L108.411 32.3905ZM89.4175 24.4293V27.9879H93.5456V24.4293H94.6691V32.3905H93.5456V28.4912H89.4175V32.3905H88.294V24.4293H89.4175ZM74.3796 32.3905H73.2561V25.5833C73.2561 25.385 73.1951 25.2833 73.0782 25.2833C73.0429 25.2831 73.008 25.2902 72.9756 25.3042C72.9432 25.3182 72.9141 25.3388 72.8901 25.3647C72.8225 25.4411 72.7661 25.5267 72.7223 25.6189L69.9262 31.3534C69.7896 31.6566 69.5963 31.931 69.3568 32.1617C69.1512 32.3564 68.8773 32.4623 68.5943 32.4566C68.4628 32.4648 68.3314 32.4381 68.2136 32.3791C68.0957 32.3202 67.9956 32.2312 67.9232 32.1211C67.7691 31.8746 67.6913 31.5881 67.6995 31.2975V24.4293H68.823V31.2466C68.823 31.45 68.8841 31.5517 69.001 31.5517C69.0363 31.5519 69.0712 31.5448 69.1036 31.5308C69.136 31.5168 69.1651 31.4962 69.1891 31.4703C69.2579 31.393 69.3144 31.3055 69.3568 31.2111L72.1631 25.4816C72.2855 25.1929 72.4576 24.928 72.6715 24.6987C72.8885 24.4932 73.1759 24.3786 73.4747 24.3784C73.6038 24.3705 73.7328 24.3958 73.8494 24.4518C73.966 24.5079 74.0663 24.5929 74.1407 24.6987C74.298 24.9419 74.3761 25.2278 74.3644 25.5172L74.3796 32.3905ZM48.015 31.9787V24.9478C47.4804 24.9332 46.9459 24.9844 46.4238 25.1003C46.0381 25.1909 45.6858 25.3882 45.407 25.6697C45.1004 26.0195 44.8639 26.4252 44.7106 26.8644C44.5019 27.3584 44.3931 27.8889 44.3903 28.4251C44.3903 29.6757 44.675 30.5807 45.2444 31.1399C45.7883 31.6838 46.7441 31.9787 48.015 31.9787ZM49.1385 31.9787C50.3942 31.9787 51.3195 31.6991 51.9041 31.1297C52.4888 30.5603 52.7887 29.6656 52.7887 28.4251C52.7907 27.8899 52.6871 27.3595 52.4837 26.8644C52.317 26.4324 52.0703 26.0358 51.7567 25.6951C51.4758 25.4122 51.125 25.2087 50.7399 25.1054C50.215 24.9852 49.6769 24.9323 49.1385 24.9478V31.9787ZM49.1385 36H48.015V32.4973C46.7526 32.5756 45.5002 32.2303 44.4564 31.5161C44.0021 31.154 43.642 30.6876 43.4066 30.1566C43.1712 29.6255 43.0674 29.0455 43.1041 28.4658C43.063 27.8639 43.1737 27.2613 43.4259 26.7133C43.6782 26.1653 44.0639 25.6893 44.5479 25.3291C45.5722 24.6644 46.7804 24.3406 47.9998 24.4038V20.53H49.1233V24.4293C50.3309 24.3722 51.5259 24.6958 52.5396 25.3545C53.0287 25.7121 53.4204 26.1865 53.6788 26.7345C53.9372 27.2824 54.0542 27.8864 54.019 28.4912C54.0476 29.0632 53.9378 29.6336 53.6988 30.154C53.4598 30.6744 53.0988 31.1294 52.6464 31.4805C51.6197 32.2057 50.3786 32.5639 49.1233 32.4973L49.1385 36ZM154.063 16.4731H149.549V5.99029L145.212 16.4731H144.729L140.347 5.94453V16.4731H138.105V0.34218H142.548L146.143 8.9389L149.701 0.34218H154.068L154.063 16.4731ZM119.158 11.5367C119.18 11.1596 119.105 10.7832 118.94 10.4432C118.776 10.1033 118.527 9.81114 118.217 9.59471C117.614 9.20228 116.903 9.00689 116.184 9.03549H114.999V14.3989H116.204C116.953 14.4337 117.69 14.2013 118.283 13.7431C118.59 13.4684 118.829 13.1261 118.981 12.7431C119.133 12.3602 119.193 11.9471 119.158 11.5367ZM123.672 11.6536C123.706 12.3898 123.546 13.122 123.207 13.7763C122.868 14.4306 122.362 14.9838 121.74 15.3801C120.513 16.1477 119.084 16.5286 117.638 16.4731H110.465V0.34218H114.979V6.95113H117.877C119.255 6.89555 120.618 7.25891 121.786 7.99331C122.393 8.38573 122.886 8.93008 123.217 9.57224C123.548 10.2144 123.705 10.932 123.672 11.6536ZM129.9 16.4731H125.385V0.34218H129.9V16.4731ZM103.373 16.4731H98.5226L93.9472 3.9161L89.4481 16.4731H87.1298L92.9254 0.34218H97.4652L103.373 16.4731ZM73.8865 9.64046L71.7717 3.9161L69.7686 9.64046H73.8865ZM81.2275 16.4731H76.3725L74.6084 11.6689H69.0467L67.3081 16.4731H64.9899L70.7854 0.34218H75.3252L81.2275 16.4731ZM58.8029 12.6094C58.1849 13.9131 57.1872 14.9994 55.9407 15.7258C54.6584 16.4586 53.203 16.8343 51.7262 16.8137C49.5008 16.8475 47.3495 16.0143 45.7273 14.4904C44.8941 13.755 44.2297 12.8482 43.7795 11.8321C43.3294 10.816 43.1042 9.7146 43.1193 8.60337C43.0873 7.44872 43.2968 6.30013 43.7346 5.23119C44.1723 4.16226 44.8285 3.19658 45.6612 2.39604C46.4442 1.61786 47.3755 1.00492 48.3999 0.593593C49.4243 0.182266 50.5208 -0.0190605 51.6245 0.00156504C53.0245 -0.0253089 54.4094 0.294282 55.656 0.931902C56.8691 1.58892 57.8732 2.57364 58.5538 3.77375L56.5762 5.19722C56.1413 4.35759 55.5671 3.59781 54.8782 2.95017C54.1622 2.32989 53.2428 1.99508 52.2956 2.00967C50.7349 2.00967 49.5808 2.78241 48.8437 4.32788C48.2496 5.69757 47.9682 7.18246 48.0201 8.67454C47.9765 10.0982 48.3284 11.506 49.0369 12.7416C49.3741 13.3651 49.8777 13.8829 50.4915 14.2374C51.1054 14.5919 51.8056 14.7692 52.5142 14.7497C53.5158 14.7406 54.4789 14.3623 55.2188 13.6872C55.9481 13.0139 56.5598 12.2235 57.0286 11.3486L58.8029 12.6094Z" fill="black"/>
<path fill-rule="evenodd" clip-rule="evenodd" d="M13.449 32.7007H15.7587V32.664L17.8063 29.0638C17.8303 29.0234 17.8641 28.9899 17.9047 28.9663C17.9452 28.9428 17.9911 28.93 18.0379 28.9293C18.085 28.9288 18.1313 28.941 18.1721 28.9647C18.2128 28.9884 18.2465 29.0226 18.2695 29.0638L20.311 32.664V32.7007H22.6695C21.6335 30.8792 20.5995 29.0597 19.5676 27.2423V27.2057H19.5066C19.3565 26.9683 19.149 26.7729 18.9034 26.6375C18.6578 26.5021 18.3821 26.4311 18.1019 26.4311C17.8217 26.4311 17.546 26.5021 17.3004 26.6375C17.0548 26.7729 16.8473 26.9683 16.6972 27.2057H16.6362V27.2423C15.5393 29.0597 14.4768 30.8792 13.449 32.7007ZM4.45388 32.7007H5.84946L4.63062 30.5552C4.51214 30.3422 4.44994 30.1023 4.44994 29.8584C4.44994 29.6145 4.51214 29.3746 4.63062 29.1616L5.24004 27.9758C5.36345 27.757 5.53979 27.5729 5.75279 27.4405C5.9658 27.308 6.20862 27.2315 6.45888 27.2179H9.09159C9.34185 27.2315 9.58467 27.308 9.79768 27.4405C10.0107 27.5729 10.187 27.757 10.3104 27.9758L10.5115 28.3242C10.599 28.4789 10.6452 28.6537 10.6456 28.8315C10.6464 28.9634 10.6211 29.0941 10.5712 29.2161C10.5212 29.3381 10.4477 29.4489 10.3547 29.5422C10.2617 29.6354 10.1512 29.7092 10.0296 29.7593C9.90797 29.8094 9.77764 29.8348 9.64616 29.834C9.49443 29.8207 9.34781 29.7725 9.21777 29.6929C9.08773 29.6134 8.97779 29.5048 8.89657 29.3755C8.82635 29.2548 8.72583 29.1546 8.60502 29.0849C8.4842 29.0152 8.3473 28.9784 8.20793 28.9782H7.47053C7.32952 28.978 7.19095 29.0151 7.06892 29.086C6.94689 29.1568 6.84575 29.2589 6.77578 29.3817L6.73922 29.4428C6.67786 29.5585 6.64577 29.6876 6.64577 29.8187C6.64577 29.9498 6.67786 30.0789 6.73922 30.1946L7.41568 31.4171C7.48436 31.5414 7.58506 31.645 7.70726 31.717C7.82945 31.7891 7.96868 31.8269 8.11042 31.8266H11.2611C11.3982 31.826 11.5328 31.7904 11.6523 31.723C11.7717 31.6556 11.872 31.5587 11.9437 31.4415L12.7725 29.9807C12.873 29.7622 12.9249 29.5244 12.9249 29.2839C12.926 29.0346 12.8719 28.7883 12.7664 28.5626L9.05502 22.059C8.93657 21.8449 8.87441 21.6041 8.87441 21.3592C8.87441 21.1143 8.93657 20.8734 9.05502 20.6593L9.7071 19.5224C9.83052 19.3036 10.0069 19.1195 10.2199 18.9871C10.4329 18.8546 10.6757 18.7781 10.9259 18.7645H13.5891C13.8394 18.7781 14.0822 18.8546 14.2952 18.9871C14.5082 19.1195 14.6846 19.3036 14.808 19.5224L15.0091 19.8769C15.0974 20.0291 15.1437 20.2021 15.1431 20.3781C15.1397 20.5915 15.0686 20.7982 14.94 20.9681C14.8114 21.1381 14.632 21.2625 14.4281 21.3231C14.2241 21.3838 14.0062 21.3777 13.806 21.3055C13.6058 21.2334 13.4337 21.0991 13.3149 20.9221C13.2447 20.8014 13.1441 20.7012 13.0233 20.6315C12.9025 20.5618 12.7656 20.525 12.6262 20.5248H11.9437C11.8013 20.5253 11.6615 20.5635 11.5385 20.6353C11.4155 20.7072 11.3135 20.8104 11.2428 20.9344V20.9894C11.181 21.1038 11.1486 21.232 11.1486 21.3622C11.1486 21.4924 11.181 21.6206 11.2428 21.7351L12.0899 23.2632C12.1591 23.3871 12.2599 23.4903 12.382 23.5623C12.5041 23.6343 12.6431 23.6724 12.7847 23.6727H15.9049C16.0436 23.6726 16.1799 23.6365 16.3005 23.5679C16.4212 23.4994 16.5221 23.4007 16.5936 23.2815L17.7698 21.2155C17.779 21.1589 17.779 21.1011 17.7698 21.0444C17.7712 20.9655 17.7523 20.8876 17.7149 20.8182L13.7719 13.7707C13.6637 13.5365 13.6117 13.2802 13.6202 13.0222C13.6287 12.7642 13.6973 12.5119 13.8207 12.2854L16.5692 7.45048C16.7061 7.16765 16.9195 6.92917 17.1852 6.76231C17.4509 6.59546 17.758 6.50697 18.0714 6.50697C18.3849 6.50697 18.692 6.59546 18.9576 6.76231C19.2233 6.92917 19.4368 7.16765 19.5736 7.45048L22.3039 12.2792C22.4232 12.5071 22.4896 12.7591 22.498 13.0163C22.5065 13.2735 22.4568 13.5293 22.3526 13.7646L18.3731 20.7877C18.3338 20.8566 18.3129 20.9345 18.3121 21.0138C18.3149 21.0725 18.3273 21.1303 18.3487 21.185L19.5249 23.2509C19.5963 23.3702 19.6973 23.4688 19.8179 23.5374C19.9386 23.6059 20.0749 23.642 20.2135 23.6421H23.413C23.5555 23.6423 23.6955 23.6044 23.8187 23.5325C23.9418 23.4605 24.0437 23.357 24.1138 23.2326L24.9609 21.7045C25.0228 21.59 25.0552 21.4619 25.0552 21.3317C25.0552 21.2014 25.0228 21.0733 24.9609 20.9588V20.9038C24.8923 20.7794 24.7916 20.6759 24.6694 20.6038C24.5472 20.5318 24.4079 20.494 24.2662 20.4943H23.4861C23.3468 20.4944 23.2099 20.5312 23.089 20.6009C22.9682 20.6706 22.8677 20.7708 22.7975 20.8916C22.7079 21.034 22.5837 21.1513 22.4367 21.2325C22.2896 21.3138 22.1244 21.3563 21.9565 21.3561C21.8229 21.3569 21.6905 21.331 21.567 21.28C21.4435 21.2289 21.3313 21.1536 21.2372 21.0586C21.143 20.9636 21.0686 20.8507 21.0184 20.7265C20.9682 20.6023 20.9432 20.4693 20.9448 20.3353C20.9443 20.1593 20.9906 19.9863 21.0789 19.8341L21.28 19.4796C21.4062 19.2566 21.5873 19.0697 21.806 18.937C22.0248 18.8043 22.2738 18.7302 22.5293 18.7217H25.1681C25.4184 18.7353 25.6612 18.8118 25.8742 18.9443C26.0872 19.0767 26.2636 19.2608 26.387 19.4796L27.0391 20.6165C27.1575 20.8306 27.2197 21.0715 27.2197 21.3164C27.2197 21.5613 27.1575 21.8021 27.0391 22.0162L23.3643 28.5626C23.2588 28.7883 23.2047 29.0346 23.2058 29.2839C23.2026 29.5248 23.2548 29.7632 23.3582 29.9807L24.187 31.4415C24.2584 31.5607 24.3594 31.6594 24.48 31.7279C24.6007 31.7965 24.7369 31.8326 24.8756 31.8327H28.0263C28.1681 31.833 28.3073 31.7952 28.4295 31.7232C28.5517 31.6511 28.6524 31.5475 28.7211 31.4232L29.3975 30.2007C29.4589 30.085 29.491 29.9559 29.491 29.8248C29.491 29.6937 29.4589 29.5646 29.3975 29.4489L29.361 29.3878C29.291 29.265 29.1899 29.163 29.0678 29.0921C28.9458 29.0212 28.8072 28.9841 28.6662 28.9843H27.9471C27.8076 28.9839 27.6705 29.0204 27.5495 29.0902C27.4286 29.1599 27.3282 29.2605 27.2585 29.3817C27.1685 29.5233 27.0442 29.6397 26.8971 29.7199C26.7499 29.8001 26.5849 29.8415 26.4175 29.8401C26.286 29.8409 26.1557 29.8155 26.034 29.7654C25.9124 29.7153 25.8019 29.6415 25.7089 29.5483C25.616 29.455 25.5424 29.3442 25.4924 29.2222C25.4425 29.1002 25.4172 28.9695 25.418 28.8377C25.4184 28.6598 25.4646 28.485 25.5521 28.3303L25.7532 27.9819C25.8766 27.7631 26.0529 27.579 26.2659 27.4466C26.4789 27.3141 26.7218 27.2376 26.972 27.224H29.6169C29.8672 27.2376 30.11 27.3141 30.323 27.4466C30.536 27.579 30.7124 27.7631 30.8358 27.9819L31.4818 29.1188C31.6002 29.3318 31.6624 29.5717 31.6624 29.8156C31.6624 30.0596 31.6002 30.2994 31.4818 30.5124L30.2629 32.6579H31.7133C35.2785 32.6579 37.1981 29.1799 35.4247 26.1115L21.8102 2.45056C20.0307 -0.642299 16.0634 -0.56895 14.2961 2.49946L0.657185 26.2032C-1.12842 29.2961 0.919236 32.7007 4.45388 32.7007ZM15.7769 12.866L17.8246 9.26585C17.8485 9.22546 17.8824 9.1919 17.9229 9.16836C17.9635 9.14482 18.0093 9.13209 18.0562 9.13138C18.1033 9.13086 18.1496 9.14307 18.1904 9.16673C18.2311 9.19039 18.2648 9.22463 18.2878 9.26585L20.3293 12.866C20.3652 12.9272 20.3842 12.9968 20.3842 13.0677C20.3842 13.1387 20.3652 13.2083 20.3293 13.2695L18.2695 16.8941C18.2449 16.9278 18.2128 16.9553 18.1758 16.9743C18.1388 16.9934 18.0978 17.0036 18.0562 17.0041C18.0146 17.0036 17.9736 16.9934 17.9366 16.9743C17.8996 16.9553 17.8675 16.9278 17.8429 16.8941L15.7769 13.2695C15.741 13.2083 15.7221 13.1387 15.7221 13.0677C15.7221 12.9968 15.741 12.9272 15.7769 12.866Z" fill="url(#paint0_linear)"/>
<defs>
<linearGradient id="paint0_linear" x1="7.34531e-09" y1="33" x2="36" y2="2.38506e-06" gradientUnits="userSpaceOnUse">
<stop stop-color="#FF0000"/>
<stop offset="1" stop-color="#850000"/>
</linearGradient>
</defs>
</svg>
